<svg width="128" height="117" viewBox="0 0 128 117" fill="none" xmlns="http://www.w3.org/2000/svg">
<g id="Logo">
<path id="Vector" d="M9.14285 7.46809H23.1619V0H1.82857V28.6277H9.14285V7.46809ZM106.667 7.46809H120.686V28.6277H128V0H106.667V7.46809ZM120.686 108.91H106.667V116.378H128V87.75H120.686V108.91ZM9.14285 87.75H1.82857V116.378H23.1619V108.91H9.14285V87.75ZM35.3524 87.75L23.7714 117H31.6952L33.5238 111.399H44.4952L46.3238 117H54.2476L42.6667 87.75H35.3524ZM35.3524 105.176L39.0095 95.8404L42.0571 105.176H35.3524ZM76.8 102.064L76.1905 101.441L78.6286 98.9521L79.8476 95.2181C79.8476 92.7287 78.6286 90.8617 77.4095 89.617C75.5809 88.3723 73.1429 87.75 69.4857 87.75H56.0762V117H70.0952C73.7524 117 76.1905 116.378 78.019 115.133C79.8476 113.266 81.0667 111.399 81.0667 108.91C81.0774 107.47 80.6803 106.058 79.9234 104.843C79.1664 103.629 78.0817 102.664 76.8 102.064ZM63.3905 93.3511H68.2667L71.3143 93.9734L72.5333 96.4628L71.3143 98.3298L68.2667 98.9521H63.3905V93.3511ZM72.5333 110.154L69.4857 110.777H63.3905V105.176H69.4857L72.5333 105.798L73.7524 108.287L72.5333 110.154ZM30.4762 87.1277L27.4286 82.7713C26.2095 84.016 24.9905 85.2606 23.7714 85.2606L21.9429 84.6383L20.7238 83.3936L25.6 80.2819C26.9232 78.7665 27.93 76.9916 28.5588 75.0655C29.1876 73.1395 29.4252 71.1028 29.2571 69.0798L28.6476 62.8564L25.6 57.8777L20.7238 54.766L15.2381 53.5213L9.14285 54.766L4.87619 57.8777C3.47298 59.3627 2.37311 61.1179 1.64061 63.0411C0.908111 64.9642 0.557613 67.017 0.609519 69.0798C0.722368 73.0192 2.23951 76.7812 4.87619 79.6596C6.78945 81.8802 9.35554 83.4086 12.1905 84.016C13.9141 85.7923 15.7463 87.4552 17.6762 88.9947L20.1143 90.2394L23.7714 90.8617C26.819 90.8617 28.6476 89.617 30.4762 87.1277ZM9.75238 75.3032L8.53333 72.1915L7.92381 69.0798L8.53333 65.3457L9.75238 62.8564L12.1905 60.9894L15.2381 60.367L17.6762 60.9894L20.1143 62.8564L21.3333 65.3457L21.9429 69.0798L21.3333 72.1915L20.1143 75.3032L17.6762 76.5479L15.2381 77.1702L12.1905 76.5479L9.75238 75.3032ZM40.8381 75.9255H44.4952L49.3714 84.016H57.2952L51.8095 74.6809L55.4667 70.9468L56.6857 65.3457L55.4667 59.1223L51.2 55.3883L45.1048 54.1436H33.5238V84.016H40.8381V75.9255ZM48.1524 62.234C48.7619 62.8564 49.3714 63.4787 49.3714 65.3457L48.1524 68.4575L44.4952 69.7021H40.8381V60.9894H44.4952C46.3238 60.9894 47.5429 60.9894 48.1524 62.234Z" fill="#425466"/>
</g>
</svg>
