<svg width="303" height="274" viewBox="0 0 303 274" fill="none" xmlns="http://www.w3.org/2000/svg">
<path d="M29.6667 28H59.6667V12H13.6667V73.7333H29.6667V28Z" fill="#425466"/>
<path d="M243 28H273V73.7333H289V12H243V28Z" fill="#425466"/>
<path d="M273 245.333H243V261.333H289V199.6H273V245.333Z" fill="#425466"/>
<path d="M59.6667 261.333H13.6667V199.6H29.6667V245.333H59.6667V261.333Z" fill="#425466"/>
<path d="M88.7333 236.51L96.0667 216.755L103.4 236.51H88.7333ZM88.2 199.599L63.2667 261.333H79.6667L84.0667 249.377H108.067L112.467 261.333H129.133L104.067 199.599H88.2Z" fill="#425466"/>
<mask id="mask0_1_2" style="mask-type:luminance" maskUnits="userSpaceOnUse" x="0" y="0" width="303" height="274">
<path d="M0 2.64645e-05H302.667V273.333H0V2.64645e-05Z" fill="white"/>
</mask>
<g mask="url(#mask0_1_2)">
<path d="M167.933 247.037C166.467 248.077 164.467 248.597 161.667 248.597H148.2V236.12H161.667C164.467 236.12 166.467 236.64 167.933 237.68C169.4 238.72 170.067 240.279 170.067 242.359C170.067 244.439 169.4 245.997 167.933 247.037ZM159.267 212.077C161.933 212.077 163.933 212.596 165.4 213.507C166.733 214.416 167.4 215.976 167.4 217.925C167.4 219.875 166.733 221.435 165.4 222.473C164.067 223.513 162.067 224.033 159.267 224.033H148.2V212.077H159.267ZM176.867 229.492C176.467 229.363 176.067 229.232 175.8 229.103C178.067 227.803 179.933 226.113 181.267 224.033C182.867 221.695 183.533 218.835 183.533 215.716C183.533 210.907 181.667 207.008 178.067 204.019C174.333 201.029 168.867 199.6 161.4 199.6H132.467V261.333H163.133C170.733 261.333 176.6 259.904 180.467 256.915C184.467 253.925 186.467 249.767 186.467 244.439C186.467 240.799 185.667 237.809 183.933 235.34C182.2 232.611 179.933 230.792 176.867 229.492Z" fill="#425466"/>
<path d="M34.3336 170.957C32.9523 169.357 31.8683 167.439 31.0856 165.206C30.2989 162.973 29.9083 160.495 29.9083 157.774C29.9083 154.995 30.2989 152.51 31.0856 150.298C31.8683 148.094 32.9523 146.193 34.3336 144.593C35.7149 142.993 37.3376 141.769 39.2083 140.929C41.0749 140.081 43.0909 139.659 45.2589 139.659C47.4229 139.659 49.4389 140.081 51.3096 140.929C53.1763 141.769 54.7989 142.993 56.1803 144.593C57.5616 146.193 58.6429 148.094 59.4283 150.298C60.2123 152.51 60.6083 154.995 60.6083 157.774C60.6083 160.495 60.2123 162.973 59.4283 165.206C58.6429 167.439 57.5616 169.357 56.1803 170.957C54.7989 172.557 53.1763 173.781 51.3096 174.629C49.4389 175.477 47.4229 175.897 45.2589 175.897C43.0909 175.897 41.0749 175.477 39.2083 174.629C37.3376 173.781 35.7149 172.557 34.3336 170.957ZM64.1803 192.021C62.9883 192.021 61.8643 191.747 60.8096 191.202C59.7523 190.663 58.6856 189.757 57.6016 188.489C57.5869 188.473 57.5723 188.451 57.5576 188.434C57.6656 188.389 57.7776 188.35 57.8856 188.305C61.7029 186.675 65.0203 184.382 67.8363 181.418C70.6483 178.462 72.8549 174.975 74.4549 170.957C76.0509 166.938 76.8509 162.545 76.8509 157.774C76.8509 153.005 76.0509 148.61 74.4549 144.593C72.8549 140.582 70.6483 137.094 67.8363 134.13C65.0203 131.174 61.7029 128.874 57.8856 127.245C54.0683 125.615 49.8589 124.797 45.2589 124.797C40.7083 124.797 36.5149 125.615 32.6683 127.245C28.8243 128.874 25.4803 131.189 22.6389 134.175C19.7963 137.169 17.5896 140.655 16.0189 144.637C14.4496 148.625 13.6669 153.005 13.6669 157.774C13.6669 162.545 14.4496 166.923 16.0189 170.913C17.5896 174.901 19.7963 178.389 22.6389 181.374C25.4803 184.367 28.8243 186.675 32.6683 188.305C34.7069 189.167 36.8456 189.797 39.0803 190.203C41.0283 192.43 42.8323 194.367 44.4856 196.009C46.6803 198.183 48.7909 199.902 50.8203 201.17C52.8523 202.438 54.9216 203.359 57.0336 203.934C59.1443 204.509 61.4176 204.797 63.8576 204.797C70.5163 204.797 75.8203 202.135 79.7723 196.819L72.7896 187.582C70.1883 190.538 67.3203 192.021 64.1803 192.021Z" fill="#425466"/>
<path d="M117.821 142.646C119.473 144.275 120.3 146.575 120.3 149.531C120.3 152.43 119.473 154.693 117.821 156.33C116.169 157.959 113.664 158.77 110.309 158.77H101.375V140.198H110.309C113.664 140.198 116.169 141.017 117.821 142.646ZM120.461 189.485H137.679L125.393 169.518C128.829 167.693 131.523 165.157 133.456 161.895C135.511 158.423 136.541 154.302 136.541 149.531C136.541 144.703 135.511 140.515 133.456 136.983C131.397 133.453 128.488 130.747 124.724 128.874C120.961 127.009 116.483 126.065 111.285 126.065H85.2947V189.485H101.375V172.63H110.152L120.461 189.485Z" fill="#425466"/>
</g>
</svg>
